# xmcd CD database file
# Copyright (C) 1993-1996 Ti Kan
#
# Track frame offsets:
# 150
# 11307
# 21645
# 34842
# 43627
# 53277
# 65360
# 75680
# 90280
# 99180
#
# Disc length: 1537 seconds
# Revision: 0
# Processed by: cddbd v1.4b41PL1 Copyright (c) Steve Scherf et al.
# Submitted via: CDSpectrumPro v3.2.327
#
DISCID=6605ff0a
DTITLE=Loretta Lynn - Greatest Hits Live
DYEAR=1900
DGENRE=
TTITLE0=Hey Loretta
TTITLE1=You're Looking At Country
TTITLE2=Let Your Love Flow
TTITLE3=We've Come A Long Way Baby
TTITLE4=You Ain't Woman Enough
TTITLE5=Me And Bobby McGee
TTITLE6=Out Of My Head And Back In My Bed
TTITLE7=Coal Miner's Daughter
TTITLE8=Make 'Em Like My Daddy
TTITLE9=One's On The Way - The Pill
EXTD=
EXTT0=
EXTT1=
EXTT2=
EXTT3=
EXTT4=
EXTT5=
EXTT6=
EXTT7=
EXTT8=
EXTT9=
PLAYORDER=
